<svg id="Layer_1" data-name="Layer 1" xmlns="http://www.w3.org/2000/svg" viewBox="0 0 50 50">
  <defs>
    <style>
      .cls-1 {
        fill: none;
      }

      .cls-2 {
        fill: #1d1d1b;
      }
    </style>
  </defs>
  <title>attachment</title>
  <g>
    <rect class="cls-1" width="50" height="50"/>
    <path class="cls-2" d="M29.72,21.41H28.37V32c0,1.69-1.78,3-3.37,3S21.63,33.72,21.63,32V16.78a2,2,0,0,1,4,0V31.55a.67.67,0,0,1-.62.62.63.63,0,0,1-.63-.62V21.41H23V31.55a2,2,0,0,0,4,0V16.77a3.34,3.34,0,0,0-6.66,0V32c0,2.23,2.25,4.3,4.74,4.3A4.71,4.71,0,0,0,29.73,32Z"/>
  </g>
</svg>
