<svg id="Layer_1" data-name="Layer 1" xmlns="http://www.w3.org/2000/svg" viewBox="0 0 49.21 42.86"><title>pdf-attachment-icon</title><path d="M6.22,20.64H0V36.19H3.16V31H6a5.12,5.12,0,0,0,5.46-5.16A4.94,4.94,0,0,0,6.22,20.64Zm2,5.2c0,1.46-1.09,2.26-2.82,2.26H3.16V23.48H5.38c1.73,0,2.82.8,2.82,2.27Z"/><polygon points="40.18 23.48 40.18 20.64 29.69 20.64 29.69 36.19 32.85 36.19 32.85 29.64 39.6 29.64 39.6 26.79 32.85 26.79 32.85 23.48 40.18 23.48"/><path d="M26.93,28.41c0-4.66-2.33-7.77-7.35-7.77H13.67V36.19h5.91C24.6,36.19,26.93,33.08,26.93,28.41ZM16.82,33.35V23.48h2.36c3.24,0,4.49,2,4.49,4.62v.6c0,2.63-1.27,4.65-4.49,4.65Z"/><polygon points="31.75 0 31.75 0 17.46 12.7 17.46 17.46 20.64 17.46 20.64 12.7 31.75 12.7 31.75 3.17 46.03 3.17 46.03 39.68 22.22 39.68 17.46 39.68 17.46 42.86 49.21 42.86 49.21 0 31.75 0"/></svg>